# Blender 5.0.0
# www.blender.org
g The_Mid-Top_80-280/99/78-ankle_The_Mid-Top_80-280/99/78-ankle
v -16.538349 96.129578 43.910469
v -41.247604 96.129578 68.619720
v -16.538351 96.129578 93.328979
v 8.170906 96.129578 68.619720
v -16.538355 71.420319 68.619720
v -16.538347 120.838837 68.619720
v -16.538353 79.056427 51.546581
v -33.611492 79.056427 68.619720
v -16.538355 79.056427 85.692863
v 0.534788 79.056427 68.619720
v -16.538349 113.202728 51.546585
v -33.611492 113.202728 68.619720
v -16.538351 113.202728 85.692863
v 0.534793 113.202728 68.619720
v 0.534790 96.129578 51.546585
v -33.611492 96.129578 51.546585
v -33.611492 96.129578 85.692863
v 0.534789 96.129578 85.692863
v -3.667935 83.259155 55.749306
v -29.408770 83.259155 55.749302
v -29.408772 83.259155 81.490143
v -3.667936 83.259155 81.490143
v -3.667931 109.000000 55.749306
v -29.408766 109.000000 55.749306
v -29.408768 109.000000 81.490143
v -3.667932 109.000000 81.490143
v 14.498973 86.739136 18.703096
v -10.210282 86.739136 43.412354
v 14.498972 86.739136 68.121605
v 39.208233 86.739136 43.412354
v 14.498969 62.029877 43.412350
v 14.498977 111.448395 43.412354
v 14.498971 69.665985 26.339211
v -2.574171 69.665985 43.412350
v 14.498970 69.665985 60.485493
v 31.572111 69.665985 43.412354
v 14.498975 103.812286 26.339214
v -2.574165 103.812286 43.412354
v 14.498974 103.812286 60.485493
v 31.572115 103.812286 43.412354
v 31.572111 86.739136 26.339212
v -2.574167 86.739136 26.339212
v -2.574170 86.739136 60.485493
v 31.572111 86.739136 60.485493
v 27.369389 73.868713 30.541935
v 1.628555 73.868713 30.541933
v 1.628554 73.868713 56.282768
v 27.369389 73.868713 56.282768
v 27.369392 99.609558 30.541937
v 1.628559 99.609558 30.541935
v 1.628556 99.609558 56.282768
v 27.369392 99.609558 56.282768
vn 0.7071 -0.0000 -0.7071
vn 0.5774 -0.5774 -0.5774
vn -0.0000 -0.7071 -0.7071
vn -0.0000 -0.0000 -1.0000
vn -0.5774 -0.5773 -0.5774
vn -0.7071 -0.0000 -0.7071
vn -0.5774 0.5774 -0.5774
vn -0.0000 0.7071 -0.7071
vn 0.5774 0.5774 -0.5774
vn -0.7071 -0.7071 -0.0000
vn -1.0000 -0.0000 -0.0000
vn -0.5774 -0.5774 0.5774
vn -0.7071 -0.0000 0.7071
vn -0.5774 0.5774 0.5774
vn -0.7071 0.7071 -0.0000
vn -0.0000 -0.7071 0.7071
vn -0.0000 -0.0000 1.0000
vn 0.5774 -0.5774 0.5774
vn 0.7071 -0.0000 0.7071
vn 0.5774 0.5774 0.5774
vn -0.0000 0.7071 0.7071
vn 0.7071 -0.7071 -0.0000
vn 1.0000 -0.0000 -0.0000
vn 0.7071 0.7071 -0.0000
vn -0.0000 -1.0000 -0.0000
vn -0.0000 1.0000 -0.0000
vn -0.5774 -0.5774 -0.5774
vn 0.5774 0.5773 0.5774
vt 0.000000 0.000000
s 1
f 15/1/1 19/1/2 7/1/3 1/1/4
f 7/1/3 20/1/5 16/1/6 1/1/4
f 16/1/6 24/1/7 11/1/8 1/1/4
f 11/1/8 23/1/9 15/1/1 1/1/4
f 16/1/6 20/1/5 8/1/10 2/1/11
f 8/1/10 21/1/12 17/1/13 2/1/11
f 17/1/13 25/1/14 12/1/15 2/1/11
f 12/1/15 24/1/7 16/1/6 2/1/11
f 17/1/13 21/1/12 9/1/16 3/1/17
f 9/1/16 22/1/18 18/1/19 3/1/17
f 18/1/19 26/1/20 13/1/21 3/1/17
f 13/1/21 25/1/14 17/1/13 3/1/17
f 18/1/19 22/1/18 10/1/22 4/1/23
f 10/1/22 19/1/2 15/1/1 4/1/23
f 15/1/1 23/1/9 14/1/24 4/1/23
f 14/1/24 26/1/20 18/1/19 4/1/23
f 7/1/3 19/1/2 10/1/22 5/1/25
f 10/1/22 22/1/18 9/1/16 5/1/25
f 9/1/16 21/1/12 8/1/10 5/1/25
f 8/1/10 20/1/5 7/1/3 5/1/25
f 14/1/24 23/1/9 11/1/8 6/1/26
f 11/1/8 24/1/7 12/1/15 6/1/26
f 12/1/15 25/1/14 13/1/21 6/1/26
f 13/1/21 26/1/20 14/1/24 6/1/26
f 41/1/1 45/1/2 33/1/3 27/1/4
f 33/1/3 46/1/27 42/1/6 27/1/4
f 42/1/6 50/1/7 37/1/8 27/1/4
f 37/1/8 49/1/9 41/1/1 27/1/4
f 42/1/6 46/1/27 34/1/10 28/1/11
f 34/1/10 47/1/12 43/1/13 28/1/11
f 43/1/13 51/1/14 38/1/15 28/1/11
f 38/1/15 50/1/7 42/1/6 28/1/11
f 43/1/13 47/1/12 35/1/16 29/1/17
f 35/1/16 48/1/18 44/1/19 29/1/17
f 44/1/19 52/1/28 39/1/21 29/1/17
f 39/1/21 51/1/14 43/1/13 29/1/17
f 44/1/19 48/1/18 36/1/22 30/1/23
f 36/1/22 45/1/2 41/1/1 30/1/23
f 41/1/1 49/1/9 40/1/24 30/1/23
f 40/1/24 52/1/28 44/1/19 30/1/23
f 33/1/3 45/1/2 36/1/22 31/1/25
f 36/1/22 48/1/18 35/1/16 31/1/25
f 35/1/16 47/1/12 34/1/10 31/1/25
f 34/1/10 46/1/27 33/1/3 31/1/25
f 40/1/24 49/1/9 37/1/8 32/1/26
f 37/1/8 50/1/7 38/1/15 32/1/26
f 38/1/15 51/1/14 39/1/21 32/1/26
f 39/1/21 52/1/28 40/1/24 32/1/26
g The_Mid-Top_80-280/99/78_The_Mid-Top_80-280/99/78
v -27.614756 8.517216 35.328480
v -20.065222 9.939213 89.457275
v -13.226406 7.358584 117.577774
v -14.830704 2.949648 145.871063
v -33.108124 0.424628 175.788101
v -34.406651 0.804266 206.566025
v -35.519005 2.066107 231.150772
v -32.400208 8.413092 271.678345
v 32.046284 7.854426 268.616028
v 51.587696 2.293388 232.032562
v 28.297310 8.467037 35.336994
v 36.591927 9.081598 89.586464
v 42.349304 7.448724 117.524361
v 50.098885 2.208976 145.775330
v 56.743549 0.725517 175.919235
v 57.562042 0.444572 206.308853
v -0.404244 11.601318 282.610016
v -12.687304 32.650818 247.693970
v 14.032608 28.372128 247.949646
v -13.907660 32.391052 237.684494
v -0.175289 30.608765 251.348587
v -0.815576 30.587280 236.822525
v 17.628586 27.793209 237.656357
v -0.044695 68.946838 2.844603
v 0.043963 53.319580 -2.823522
v -15.341430 51.369934 34.451183
v -39.247318 29.725838 35.969944
v -38.303078 32.279610 89.616081
v -39.411884 29.444771 117.561295
v -40.932396 21.641548 145.837524
v -42.275837 16.519783 175.690933
v -40.724926 11.942694 206.724014
v -41.134048 13.993414 231.020081
v -35.252197 18.298649 272.744690
v -0.119575 19.883179 285.331299
v 34.369816 17.028988 271.524994
v 55.872936 10.895195 231.337799
v 50.508560 22.518974 232.280640
v 31.138491 26.231503 268.056946
v 0.487766 31.478149 280.967346
v 22.672157 27.403683 256.307892
v 0.582627 31.354858 267.824768
v -25.086542 33.518250 261.663879
v -31.995848 31.652592 270.673889
v -28.181417 32.846260 234.001251
v -37.038994 27.048038 231.500320
v -27.651846 37.012947 205.769989
v -37.594296 29.870914 206.545212
v -27.177511 47.499153 176.067413
v -35.858746 36.687141 175.684021
v -27.343706 57.555305 145.663376
v -33.259235 42.410469 145.809753
v -23.284227 65.506653 117.885101
v -29.310577 51.055489 117.392204
v -21.757849 69.241943 89.491112
v -26.216547 54.156136 89.571060
v -17.200344 68.372253 34.378273
v -0.177432 103.765076 37.235435
v 16.989761 68.297607 34.435799
v 16.743769 51.301697 34.433460
v -0.121078 33.200500 -7.329257
v 37.120514 29.977169 35.877838
v 44.967018 27.355705 89.601158
v 51.212509 24.466118 117.485313
v 56.552570 16.688530 145.810089
v 60.889004 12.309501 175.876663
v 61.272045 9.482168 206.457855
v 58.065388 25.531609 175.987106
v 57.311188 23.609489 206.186951
v 40.045792 31.067924 176.129227
v 41.018986 25.310844 205.330383
v 34.098995 25.308407 235.417908
v 19.749889 38.719299 176.346649
v 21.025204 27.138119 204.785400
v -1.049394 52.799744 176.723694
v -1.526605 31.877014 204.673676
v -15.448419 49.537964 176.150497
v -14.935896 36.009033 205.071198
v -18.650270 68.665833 145.704544
v -0.006040 103.765076 90.513359
v 27.841185 58.910149 117.645233
v 23.961971 66.878052 89.472305
v 35.953556 42.873466 117.425507
v 27.208960 52.117058 89.585777
v 48.866295 30.831657 145.725662
v 32.946457 40.507072 145.649597
v 18.998343 58.037659 145.551208
v -0.153864 77.449768 143.434540
v -1.035649 3.821472 237.411285
v 5.675380 0.315308 205.125504
v 9.954726 0.339048 176.008163
v 12.188822 2.270201 145.818741
v 10.865066 6.597959 117.580032
v 5.029611 8.934875 89.506523
v -0.731845 8.039001 36.748219
v -20.488459 9.336430 12.566154
v 19.132179 9.404842 12.534630
v 11.997122 68.656494 12.537785
v -12.023446 68.673828 12.729585
v -14.816735 52.169128 12.253276
v -28.908482 31.367802 9.311998
v 14.461788 52.148865 12.233366
v 29.393270 31.246029 9.631908
v 0.336459 9.985718 3.010977
v -23.741808 8.529484 64.354538
v 31.953257 8.685663 64.352020
v -37.560970 31.416569 64.196594
v -19.447170 68.645630 64.621452
v -22.794245 52.872559 64.545929
v -0.220440 103.765076 63.640743
v 20.137047 68.456848 64.614029
v 19.820963 52.717896 64.539787
v 41.218742 29.365532 64.245132
v 0.392900 7.549683 63.999962
v -0.169216 84.724915 3.613138
v -17.129337 84.962036 34.589951
v 16.572489 84.884949 34.557175
v -18.117460 87.477966 118.216034
v -19.103664 85.277893 89.707451
v -0.094695 97.174255 122.191956
v 18.399967 84.850342 118.557022
v 19.671217 84.460815 89.570442
v -11.755909 84.872375 12.176855
v 12.234166 84.862549 12.128956
v -17.589390 84.701599 64.505226
v 18.616791 84.797913 64.495422
v -10.880091 103.765076 63.560848
v -15.330885 101.570618 64.016701
v -17.001848 101.818573 34.972439
v -9.264379 103.765076 34.225700
v -14.625531 101.611755 91.156006
v -11.084754 103.765076 93.585411
v -8.681515 103.765076 101.555595
v -13.946216 101.759766 108.945213
v -5.109380 103.765076 17.307377
v -10.657773 101.390350 12.130919
v 16.049847 101.762390 91.184532
v 10.959196 103.765076 93.588104
v 11.428866 103.765076 63.421841
v 16.395628 101.507019 64.004829
v 10.930834 103.765076 101.535065
v 14.720186 102.183929 108.742737
v 15.532495 101.803467 34.915329
v 10.167864 103.765076 34.543644
v 5.555228 103.765076 16.615026
v 11.602715 101.347717 12.355552
v -0.554734 103.765076 112.059181
v -0.481945 100.425873 118.038933
v -0.107876 103.765076 9.697884
v -0.299961 101.647430 4.839648
v 0.176173 8.107971 21.866497
v 0.583475 5.371033 247.807526
v -16.554598 2.224550 234.516373
v -15.504967 -0.149229 205.520889
v -11.312161 -0.565794 176.094818
v -1.564449 2.369568 145.828247
v 0.518404 6.986816 117.569763
v -5.088348 9.436035 89.491798
v -16.503309 8.128298 36.330368
v 35.216572 2.517694 235.891266
v 41.725616 -0.298102 205.285187
v 39.242378 -0.390875 176.079529
v 35.373116 1.314081 145.849411
v 29.616400 5.952511 117.581673
v 26.739704 7.537899 89.512276
v 18.098461 8.108335 36.383331
v 21.852587 7.365108 63.994644
v -12.470648 8.001345 64.001236
v 12.001167 8.551695 18.566469
v -12.002184 8.495913 18.872869
v 0.113130 8.880432 12.636662
v -17.048784 6.268436 259.413513
v 21.383774 5.358334 254.583527
v 0.035592 6.883606 262.306671
v 20.158287 11.588985 12.244357
v 0.290705 12.307190 1.942042
v -21.330462 11.539555 12.240738
v -28.778013 10.495304 35.392628
v -25.123724 10.818180 64.338745
v -21.889008 12.173222 89.473152
v -15.844954 9.567202 117.576126
v -17.440872 4.818851 145.867722
v -34.024895 2.034186 175.778381
v -35.038479 1.918097 206.581818
v -36.080509 3.258856 231.072906
v -32.685406 9.401678 271.784973
v -0.375777 12.429504 282.882141
v 32.278637 8.771845 268.906921
v 52.016220 3.153617 231.960724
v 57.933044 1.348381 206.323761
v 57.158092 1.883903 175.914978
v 50.744255 3.656974 145.778809
v 43.235626 9.150507 117.520454
v 37.429432 10.909052 89.587936
v 32.879803 10.753656 64.341331
v 29.179628 10.475277 35.391079
vn -0.0167 0.0336 -0.9993
vn -0.0053 0.1296 -0.9915
vn -0.8662 0.0634 -0.4956
vn -0.8336 0.0262 -0.5518
vn 0.1005 0.9947 -0.0206
vn 0.1131 0.9929 0.0358
vn -0.2447 0.9684 0.0491
vn -0.0709 0.9975 0.0071
vn 0.1110 0.9938 0.0030
vn 0.1410 0.9898 -0.0215
vn 0.1764 0.9842 0.0142
vn 0.1472 0.9888 -0.0237
vn 0.1476 0.9890 0.0007
vn 0.1541 0.9878 -0.0230
vn 0.1399 0.9901 0.0080
vn 0.8376 0.0301 -0.5455
vn 0.8625 0.0702 -0.5012
vn 0.8135 0.3335 -0.4765
vn 0.0015 0.3375 -0.9413
vn -0.8150 0.3350 -0.4729
vn 0.0036 -0.0015 -1.0000
vn -0.7821 0.0757 -0.6186
vn -0.9813 0.1280 -0.1440
vn -0.9993 0.0347 -0.0117
vn -0.9157 0.3821 -0.1247
vn -0.9175 0.3720 -0.1407
vn -0.8752 -0.4727 -0.1032
vn -0.8353 -0.5396 0.1053
vn -0.9955 -0.0931 -0.0159
vn -0.9777 -0.1998 -0.0646
vn -0.9215 0.3881 -0.0135
vn -0.9173 0.3924 -0.0674
vn -0.7619 -0.6433 0.0749
vn -0.6610 -0.7472 -0.0693
vn -0.6331 -0.7244 -0.2727
vn -0.9628 -0.2273 -0.1459
vn -0.9817 -0.1725 -0.0804
vn -0.8881 0.4528 0.0793
vn -0.9185 0.3947 0.0228
vn -0.7800 -0.5931 -0.1996
vn -0.8787 -0.4770 -0.0176
vn -0.9915 -0.1296 0.0064
vn -0.9939 -0.0861 0.0693
vn -0.7986 0.5995 0.0532
vn -0.8449 0.5276 0.0882
vn -0.9084 -0.4125 0.0678
vn -0.7079 -0.3458 0.6159
vn -0.7686 -0.0138 0.6396
vn 0.0292 0.0224 0.9993
vn 0.0812 0.8198 0.5669
vn -0.5359 0.7732 0.3390
vn 0.0186 -0.3009 0.9535
vn 0.5967 -0.3632 0.7156
vn 0.6706 0.0189 0.7416
vn 0.8525 -0.3800 0.3590
vn 0.9335 -0.0097 0.3585
vn 0.5949 0.7811 0.1898
vn 0.4604 0.8113 0.3603
vn -0.3317 0.9194 0.2113
vn -0.5596 0.7793 0.2819
vn -0.8374 0.5255 0.1506
vn -0.9457 0.3249 0.0119
vn -0.9712 0.2305 -0.0600
vn -0.9874 0.1218 -0.1010
vn -0.9893 0.0352 -0.1414
vn -0.1529 0.9880 -0.0204
vn -0.2045 0.9789 0.0021
vn -0.0000 1.0000 -0.0000
vn 0.1961 0.9806 -0.0020
vn 0.1811 0.9832 -0.0229
vn 0.9899 0.0281 -0.1389
vn 0.9894 0.0760 -0.1235
vn 0.9189 0.3663 -0.1466
vn 0.9224 0.3635 -0.1305
vn 0.7912 0.0716 -0.6074
vn 0.9051 -0.4014 -0.1401
vn 0.8879 -0.4001 -0.2271
vn 0.9675 0.1577 -0.1975
vn 0.9765 0.1500 -0.1549
vn 0.8682 -0.4232 -0.2592
vn 0.8885 -0.4183 -0.1886
vn 0.9773 0.1160 -0.1775
vn 0.9763 0.0977 -0.1930
vn 0.8832 -0.3934 -0.2554
vn 0.9796 0.0397 -0.1970
vn 0.9237 -0.3635 -0.1210
vn 0.9947 -0.0344 -0.0966
vn 0.9200 -0.3792 0.0988
vn 0.9922 -0.0492 0.1149
vn 0.7108 0.7027 0.0313
vn 0.6566 0.7440 0.1239
vn 0.3550 0.9125 0.2031
vn 0.1704 0.9785 0.1159
vn 0.2234 0.9549 0.1954
vn 0.4322 0.8170 0.3817
vn 0.1773 0.8297 0.5293
vn 0.2023 0.9395 0.2764
vn -0.1967 0.8581 0.4743
vn 0.0651 0.9580 0.2792
vn -0.5522 0.7119 0.4340
vn -0.8196 0.4867 0.3022
vn -0.9786 0.2046 -0.0199
vn 0.9766 0.2147 -0.0140
vn 0.8142 0.4639 0.3490
vn 0.8872 0.4546 0.0791
vn 0.9680 0.2285 -0.1038
vn 0.8288 0.5587 -0.0288
vn 0.8923 0.4297 -0.1383
vn 0.7523 0.6587 0.0086
vn 0.6571 0.7238 0.2107
vn 0.6417 0.6443 0.4161
vn 0.0428 0.7044 0.7086
vn 0.1223 0.7850 0.6073
vn 0.0086 -0.9990 0.0443
vn 0.5675 -0.8190 0.0853
vn 0.5132 -0.8092 0.2860
vn -0.0036 -0.9928 0.1201
vn 0.0165 -0.9993 -0.0321
vn 0.5816 -0.8081 -0.0936
vn 0.0192 -0.9930 -0.1168
vn 0.5537 -0.8013 -0.2267
vn 0.0324 -0.9921 -0.1211
vn 0.5557 -0.8007 -0.2239
vn 0.0474 -0.9984 -0.0295
vn 0.5843 -0.8009 -0.1309
vn 0.0463 -0.9989 -0.0051
vn 0.0355 -0.9990 -0.0281
vn 0.5511 -0.8195 -0.1569
vn 0.5857 -0.8057 -0.0884
vn -0.0349 -0.9989 0.0309
vn -0.4899 -0.8670 0.0914
vn -0.5210 -0.8513 -0.0623
vn -0.0304 -0.9994 -0.0162
vn -0.0429 -0.9990 -0.0090
vn -0.0379 -0.9931 -0.1113
vn -0.0322 -0.9924 -0.1188
vn -0.0381 -0.9992 -0.0075
vn -0.0167 -0.9937 -0.1110
vn -0.0190 -0.9919 -0.1257
vn 0.0005 -0.9995 -0.0309
vn -0.0091 -0.9991 -0.0416
vn 0.0091 -0.9986 0.0522
vn 0.0022 -0.9989 0.0472
vn 0.0126 -0.9925 0.1215
vn 0.0173 -0.9926 0.1202
vn -0.9909 0.0442 -0.1275
vn -0.6748 -0.4052 -0.6168
vn 0.6801 -0.3932 -0.6187
vn 0.9900 0.0527 -0.1309
vn -0.2274 0.9737 0.0121
vn -0.2096 0.9710 0.1146
vn -0.0115 0.9883 0.1519
vn 0.1825 0.9776 0.1047
vn 0.1943 0.9809 0.0015
vn 0.9906 0.1234 -0.0593
vn -0.0250 -0.9995 0.0177
vn -0.9926 0.1173 -0.0301
vn -0.0032 0.9898 -0.1426
vn -0.1866 0.9754 -0.1171
vn 0.2002 0.9715 -0.1270
vn 0.0109 -0.3746 -0.9271
vn -0.6565 0.6135 -0.4389
vn -0.0161 0.6621 -0.7492
vn 0.6619 0.6117 -0.4332
vn 0.7968 0.5968 -0.0947
vn -0.7800 0.6256 0.0138
vn -0.7986 0.6019 0.0035
vn 0.7928 0.6091 -0.0199
vn 0.7727 0.6346 0.0124
vn -0.5684 0.7704 0.2889
vn -0.0105 0.8403 0.5420
vn 0.5656 0.7659 0.3057
vn -0.7838 0.6137 -0.0947
vn -0.0057 -0.9998 -0.0164
vn 0.0006 -0.9987 -0.0502
vn 0.0260 -0.9975 -0.0664
vn -0.0237 -0.9977 -0.0632
vn 0.0020 -0.9953 -0.0972
vn 0.0107 -0.8123 -0.5832
vn 0.4012 -0.8209 -0.4064
vn 0.0026 -0.9923 0.1241
vn 0.0197 -0.9873 0.1576
vn -0.0148 -0.9882 0.1524
vn -0.0029 -0.9875 0.1575
vn 0.0146 -0.7496 0.6617
vn -0.3842 -0.8064 0.4496
vn 0.3410 -0.7873 0.5137
vn -0.3678 -0.9263 -0.0819
vn -0.4343 -0.8987 0.0607
vn -0.3521 -0.9076 -0.2287
vn -0.4482 -0.8800 -0.1571
vn -0.5270 -0.8498 0.0088
vn -0.5484 -0.8302 0.1003
vn -0.3954 -0.8311 -0.3909
vt 0.001692 -5.152750
vt 0.000447 -5.310531
vt 0.127296 -5.313261
vt 0.121769 -5.151276
vt 0.126873 2.476940
vt 0.139077 2.376845
vt 0.281814 2.340013
vt 0.250865 2.616639
vt -0.005826 2.678248
vt 0.001753 2.513486
vt 0.008156 2.368226
vt -0.140326 2.479497
vt -0.176286 2.376564
vt -0.226722 2.563079
vt -0.340990 2.354180
vt -0.121290 -5.151374
vt -0.125378 -5.313435
vt -0.122334 -5.478511
vt -0.000440 -5.466804
vt 0.122533 -5.478308
vt 0.001211 -5.667994
vt 0.093120 -5.686321
vt 0.359700 -5.702741
vt 0.641966 -5.685834
vt 0.645460 -5.471274
vt 0.344512 -5.486300
vt 0.353927 -5.895046
vt 0.643388 -5.891818
vt 0.896161 -5.677203
vt 1.175613 -5.705552
vt 1.173923 -5.489445
vt 0.895711 -5.458438
vt 0.894732 -5.878267
vt -0.158450 1.175762
vt -0.174409 1.458678
vt 1.458376 -5.783584
vt 1.756910 -5.834802
vt 1.756841 -5.633128
vt 1.458098 -5.575895
vt 1.757784 -5.979658
vt 2.065819 -5.980818
vt 2.067241 -5.880572
vt 2.310201 -5.860065
vt 2.315004 -5.729519
vt 2.065453 -5.701290
vt 2.310730 -5.967411
vt 2.717850 -5.905982
vt 2.727447 -5.817013
vt -0.001196 -5.801167
vt -0.004878 2.809674
vt 0.319958 2.706739
vt -0.003758 -5.875704
vt 0.322786 -5.912281
vt 0.343698 -5.829710
vt -2.319608 -5.968463
vt -2.313378 -5.891047
vt -0.505086 2.322807
vt -0.311385 2.680570
vt 0.276518 2.057700
vt 0.271775 1.760675
vt 1.456634 -5.424447
vt 1.178851 -5.344933
vt 0.894912 -5.307580
vt 0.646215 -5.313543
vt 0.343783 -5.316277
vt 0.092644 0.342257
vt 0.108801 0.635609
vt 0.002205 0.636408
vt 0.001774 0.372355
vt -0.114289 0.634219
vt -0.101679 0.345437
vt -0.344358 -5.317023
vt -0.646141 -5.315431
vt -0.645398 -5.472820
vt -0.344335 -5.486982
vt -0.096320 -5.687539
vt -0.643414 -5.892463
vt -0.353911 -5.895247
vt -0.358779 -5.700228
vt -0.642452 -5.706344
vt -1.175205 -5.908494
vt -0.895880 -5.890909
vt -0.896012 -5.726442
vt -1.174854 -5.755338
vt -1.457789 -5.963429
vt -1.458101 -5.833114
vt -1.759150 -5.981160
vt -1.758767 -5.876904
vt -2.063238 -5.986516
vt -2.064579 -5.905178
vt -1.759871 -5.744683
vt -0.573112 2.061870
vt -0.400458 1.761293
vt -0.410190 2.053304
vt -0.210252 2.047854
vt -0.197499 1.763467
vt 0.010494 1.767237
vt 0.015266 2.046737
vt 0.154484 1.761505
vt 0.149359 2.050712
vt 0.186503 1.457046
vt 1.182161 -5.125220
vt 0.897075 -5.147221
vt -0.895705 -5.155391
vt -1.185571 -5.151496
vt -1.176453 -5.410898
vt -0.894723 -5.331219
vt -1.174255 -5.571265
vt -0.895858 -5.478829
vt -1.457257 -5.691683
vt -0.329465 1.456496
vt -0.189983 1.455513
vt -0.000947 -5.028257
vt 0.001539 1.434346
vt 0.417256 2.052852
vt 0.575620 2.063089
vt 0.515877 2.320326
vt 0.352166 2.358913
vt 0.392424 1.760796
vt 0.567436 1.759193
vt 0.353731 1.458495
vt 0.500989 1.457754
vt 0.296164 1.175817
vt 0.423493 1.175244
vt 0.267397 0.895123
vt 0.365919 0.895865
vt 0.218526 0.639947
vt 0.180985 0.363834
vt 0.282973 0.353370
vt 0.319533 0.643521
vt -0.124706 0.640013
vt -0.237418 0.643546
vt -0.276148 0.353285
vt -0.165033 0.363304
vt 0.050296 0.895066
vt 0.108651 1.175801
vt 0.005184 1.175698
vt -0.050883 0.894918
vt 0.121888 1.458188
vt -0.015644 1.458283
vt 0.099547 1.760082
vt -0.113122 1.760949
vt 0.056754 2.051255
vt -0.155050 2.055209
vt -0.010356 2.374113
vt -0.165546 2.345164
vt 0.345900 -5.150379
vt 0.122408 -5.884604
vt -0.122444 -5.884109
vt -0.345572 -5.151150
vt 0.000061 0.905134
vt 0.110848 0.935854
vt 0.086815 1.015556
vt 0.005547 1.120592
vt -0.109308 1.015351
vt -0.109592 0.935881
vt -0.644955 -5.152020
vt 0.003929 0.640000
vt 0.645053 -5.152983
vt 0.001079 0.096979
vt 0.051094 0.173074
vt -0.055552 0.166151
vt -0.002907 -5.876927
vt 0.121310 -4.986096
vt 0.003000 -4.983525
vt -0.123556 -4.986522
vt -0.349154 -4.981965
vt 0.911560 -4.983882
vt 0.640167 -4.984293
vt -0.640049 -4.984929
vt -0.911846 -4.982376
vt 0.139462 1.089453
vt 0.004820 1.180390
vt -0.147202 1.087428
vt 0.349725 -4.981813
vt -0.007318 0.367483
vt 0.001762 0.218665
vt 0.120012 0.185665
vt -0.120022 0.188729
vt 0.001131 0.126367
vt 0.003365 0.030110
vt 0.191322 0.125347
vt 0.005835 2.478076
vt -0.170488 2.594136
vt 0.213838 2.545836
vt 0.000356 2.623067
vt -0.004042 2.826100
vt -0.324002 2.716784
vt 0.320463 2.686161
vt -0.132264 1.175778
vt -0.200652 0.894573
vt -0.148307 1.458711
vt -0.331081 1.757882
vt -0.344066 2.065661
vt -0.355190 2.311508
vt -0.204885 0.125662
s 1
f 167/2/29 76/3/30 151/4/31 175/5/32
f 70/6/33 72/7/34 97/8/35 95/9/36
f 70/6/33 95/9/36 94/10/37 73/11/38
f 70/6/33 73/11/38 74/12/39 72/7/34
f 71/13/40 75/14/41 74/12/39 73/11/38
f 71/13/40 73/11/38 94/10/37 93/15/42
f 71/13/40 93/15/42 124/16/43 75/14/41
f 76/3/30 167/2/29 176/17/44 150/18/45
f 76/3/30 150/18/45 154/19/46 77/20/47
f 76/3/30 77/20/47 152/21/48 151/4/31
f 152/21/48 77/20/47 113/22/49 153/23/50
f 79/24/51 159/25/52 161/26/53 78/27/54
f 230/28/55 231/29/56 159/25/52 79/24/51
f 80/30/57 81/31/58 106/32/59 108/33/60
f 232/34/61 233/35/62 81/31/58 80/30/57
f 233/35/62 234/36/63 82/37/64 81/31/58
f 82/37/64 83/38/65 102/39/66 104/40/67
f 82/37/64 104/40/67 106/32/59 81/31/58
f 234/36/63 235/41/68 83/38/65 82/37/64
f 235/41/68 236/42/69 84/43/70 83/38/65
f 84/43/70 85/44/71 98/45/72 100/46/73
f 84/43/70 100/46/73 102/39/66 83/38/65
f 236/42/69 237/47/74 85/44/71 84/43/70
f 237/47/74 238/48/75 86/49/76 85/44/71
f 86/49/76 87/50/77 92/51/78 96/52/79
f 86/49/76 96/52/79 98/45/72 85/44/71
f 238/48/75 239/53/80 87/50/77 86/49/76
f 239/53/80 240/54/81 88/55/82 87/50/77
f 240/54/81 241/56/83 89/57/84 88/55/82
f 88/55/82 89/57/84 90/58/85 91/59/86
f 88/55/82 91/59/86 92/51/78 87/50/77
f 92/51/78 91/59/86 93/15/42 94/10/37
f 92/51/78 94/10/37 95/9/36 96/52/79
f 96/52/79 95/9/36 97/8/35 98/45/72
f 98/45/72 97/8/35 99/60/87 100/46/73
f 100/46/73 99/60/87 101/61/88 102/39/66
f 102/39/66 101/61/88 103/62/89 104/40/67
f 104/40/67 103/62/89 105/63/90 106/32/59
f 106/32/59 105/63/90 107/64/91 108/33/60
f 161/26/53 160/65/92 109/66/93 78/27/54
f 182/67/94 179/68/95 162/69/96 110/70/96
f 110/70/96 162/69/96 191/71/97 196/72/98
f 111/73/99 163/74/100 164/75/101 112/76/102
f 113/22/49 77/20/47 154/19/46 155/77/103
f 247/78/104 248/79/105 114/80/106 165/81/107
f 245/82/108 246/83/109 115/84/110 116/85/111
f 244/86/112 245/82/108 116/85/111 117/87/113
f 243/88/114 244/86/112 117/87/113 118/89/115
f 242/90/116 243/88/114 118/89/115 119/91/117
f 241/56/83 242/90/116 119/91/117 89/57/84
f 119/91/117 118/89/115 120/92/118 121/93/119
f 119/91/117 121/93/119 90/58/85 89/57/84
f 121/93/119 120/92/118 122/94/120 123/95/121
f 121/93/119 123/95/121 124/16/43 90/58/85
f 124/16/43 93/15/42 91/59/86 90/58/85
f 124/16/43 123/95/121 126/96/122 75/14/41
f 126/96/122 123/95/121 122/94/120 125/97/123
f 126/96/122 125/97/123 127/98/124 128/99/125
f 126/96/122 128/99/125 74/12/39 75/14/41
f 128/99/125 127/98/124 129/100/126 130/101/127
f 128/99/125 130/101/127 72/7/34 74/12/39
f 130/101/127 129/100/126 101/61/88 99/60/87
f 130/101/127 99/60/87 97/8/35 72/7/34
f 101/61/88 129/100/126 131/102/128 103/62/89
f 103/62/89 131/102/128 170/103/129 105/63/90
f 105/63/90 170/103/129 171/104/130 107/64/91
f 174/105/131 173/106/132 133/107/133 134/108/134
f 134/108/134 133/107/133 135/109/135 136/110/136
f 136/110/136 135/109/135 116/85/111 115/84/110
f 114/80/106 112/76/102 164/75/101 165/81/107
f 137/111/137 117/87/113 116/85/111 135/109/135
f 137/111/137 120/92/118 118/89/115 117/87/113
f 137/111/137 135/109/135 133/107/133 138/112/138
f 137/111/137 138/112/138 122/94/120 120/92/118
f 138/112/138 133/107/133 173/106/132 139/113/139
f 138/112/138 139/113/139 125/97/123 122/94/120
f 139/113/139 173/106/132 172/114/140 140/115/141
f 139/113/139 140/115/141 127/98/124 125/97/123
f 140/115/141 172/114/140 170/103/129 131/102/128
f 140/115/141 131/102/128 129/100/126 127/98/124
f 213/116/142 68/117/143 62/118/144 212/119/145
f 213/116/142 214/120/146 67/121/147 68/117/143
f 215/122/148 66/123/149 67/121/147 214/120/146
f 216/124/150 65/125/151 66/123/149 215/122/148
f 216/124/150 217/126/152 64/127/153 65/125/151
f 219/128/154 218/129/155 63/130/156 158/131/157
f 220/132/158 157/133/159 53/134/160 211/135/161
f 146/136/162 145/137/163 209/138/164 210/139/165
f 144/140/166 208/141/167 209/138/164 145/137/163
f 143/142/168 207/143/169 208/141/167 144/140/166
f 143/142/168 142/144/170 206/145/171 207/143/169
f 142/144/170 141/146/172 205/147/173 206/145/171
f 151/4/31 109/66/93 168/148/174 175/5/32
f 152/21/48 78/27/54 109/66/93 151/4/31
f 153/23/50 79/24/51 78/27/54 152/21/48
f 229/149/175 230/28/55 79/24/51 153/23/50
f 248/79/105 227/150/176 155/77/103 114/80/106
f 154/19/46 112/76/102 114/80/106 155/77/103
f 150/18/45 111/73/99 112/76/102 154/19/46
f 176/17/44 169/151/177 111/73/99 150/18/45
f 132/152/96 184/153/178 185/154/179 199/155/180
f 132/152/96 199/155/180 193/156/181 190/157/182
f 178/158/183 174/105/131 134/108/134 163/74/100
f 163/74/100 134/108/134 136/110/136 164/75/101
f 164/75/101 136/110/136 115/84/110 165/81/107
f 246/83/109 247/78/104 165/81/107 115/84/110
f 219/128/154 158/131/157 64/127/153 217/126/152
f 220/132/158 166/159/184 146/136/162 210/139/165
f 231/29/56 232/34/61 80/30/57 159/25/52
f 159/25/52 80/30/57 108/33/60 161/26/53
f 161/26/53 108/33/60 107/64/91 160/65/92
f 160/65/92 107/64/91 171/104/130 177/160/185
f 179/68/95 184/153/178 132/152/96 162/69/96
f 162/69/96 132/152/96 190/157/182 191/71/97
f 201/161/186 187/162/187 182/67/94 110/70/96
f 197/163/188 201/161/186 110/70/96 196/72/98
f 228/164/189 229/149/175 153/23/50 113/22/49
f 227/150/176 228/164/189 113/22/49 155/77/103
f 188/165/190 202/166/191 167/2/29 175/5/32
f 202/166/191 198/167/192 176/17/44 167/2/29
f 198/167/192 195/168/193 169/151/177 176/17/44
f 183/169/194 180/170/195 177/160/185 171/104/130
f 192/171/196 189/172/197 174/105/131 178/158/183
f 186/173/198 183/169/194 171/104/130 170/103/129
f 200/174/199 186/173/198 170/103/129 172/114/140
f 194/175/200 200/174/199 172/114/140 173/106/132
f 189/172/197 194/175/200 173/106/132 174/105/131
f 181/176/201 188/165/190 175/5/32 168/148/174
f 180/170/195 181/176/201 168/148/174 177/160/185
f 195/168/193 192/171/196 178/158/183 169/151/177
f 180/170/195 179/68/95 182/67/94 181/176/201
f 183/169/194 184/153/178 179/68/95 180/170/195
f 184/153/178 183/169/194 186/173/198 185/154/179
f 187/162/187 188/165/190 181/176/201 182/67/94
f 190/157/182 189/172/197 192/171/196 191/71/97
f 189/172/197 190/157/182 193/156/181 194/175/200
f 196/72/98 195/168/193 198/167/192 197/163/188
f 191/71/97 192/171/196 195/168/193 196/72/98
f 199/155/180 200/174/199 194/175/200 193/156/181
f 185/154/179 186/173/198 200/174/199 199/155/180
f 201/161/186 202/166/191 188/165/190 187/162/187
f 202/166/191 201/161/186 197/163/188 198/167/192
f 147/177/202 203/178/203 221/179/204 218/129/155
f 222/180/205 203/178/203 147/177/202 211/135/161
f 222/180/205 223/181/206 203/178/203
f 223/181/206 156/182/207 149/183/208 221/179/204
f 204/184/209 224/185/210 205/147/173 141/146/172
f 212/119/145 225/186/211 204/184/209 141/146/172
f 226/187/212 69/188/213 60/189/214 224/185/210
f 225/186/211 61/190/215 69/188/213 226/187/212
f 213/116/142 212/119/145 141/146/172 142/144/170
f 213/116/142 142/144/170 143/142/168 214/120/146
f 215/122/148 214/120/146 143/142/168 144/140/166
f 216/124/150 215/122/148 144/140/166 145/137/163
f 216/124/150 145/137/163 146/136/162 217/126/152
f 219/128/154 166/159/184 147/177/202 218/129/155
f 220/132/158 211/135/161 147/177/202 166/159/184
f 209/138/164 55/191/216 54/192/217 210/139/165
f 209/138/164 208/141/167 56/193/218 55/191/216
f 208/141/167 207/143/169 57/194/219 56/193/218
f 207/143/169 206/145/171 58/195/220 57/194/219
f 206/145/171 205/147/173 59/196/221 58/195/220
f 219/128/154 217/126/152 146/136/162 166/159/184
f 220/132/158 210/139/165 54/192/217 157/133/159
f 221/179/204 149/183/208 63/130/156 218/129/155
f 222/180/205 211/135/161 53/134/160 148/197/222
f 222/180/205 148/197/222 156/182/207 223/181/206
f 223/181/206 221/179/204 203/178/203
f 205/147/173 224/185/210 60/189/214 59/196/221
f 212/119/145 62/118/144 61/190/215 225/186/211
f 226/187/212 224/185/210 204/184/209
f 225/186/211 226/187/212 204/184/209
f 109/66/93 160/65/92 177/160/185 168/148/174
f 111/73/99 169/151/177 178/158/183 163/74/100
f 228/164/189 227/150/176 149/183/208 156/182/207
f 229/149/175 228/164/189 156/182/207 148/197/222
f 230/28/55 229/149/175 148/197/222 53/134/160
f 231/29/56 230/28/55 53/134/160 157/133/159
f 232/34/61 231/29/56 157/133/159 54/192/217
f 233/35/62 232/34/61 54/192/217 55/191/216
f 234/36/63 233/35/62 55/191/216 56/193/218
f 235/41/68 234/36/63 56/193/218 57/194/219
f 236/42/69 235/41/68 57/194/219 58/195/220
f 237/47/74 236/42/69 58/195/220 59/196/221
f 238/48/75 237/47/74 59/196/221 60/189/214
f 239/53/80 238/48/75 60/189/214 69/188/213
f 240/54/81 239/53/80 69/188/213 61/190/215
f 241/56/83 240/54/81 61/190/215 62/118/144
f 242/90/116 241/56/83 62/118/144 68/117/143
f 243/88/114 242/90/116 68/117/143 67/121/147
f 244/86/112 243/88/114 67/121/147 66/123/149
f 245/82/108 244/86/112 66/123/149 65/125/151
f 246/83/109 245/82/108 65/125/151 64/127/153
f 247/78/104 246/83/109 64/127/153 158/131/157
f 248/79/105 247/78/104 158/131/157 63/130/156
f 227/150/176 248/79/105 63/130/156 149/183/208
